{
    "asset" : {
        "generator" : "Khronos glTF Blender I/O v1.5.17",
        "version" : "2.0"
    },
    "scene" : 0,
    "scenes" : [
        {
            "name" : "Scene",
            "nodes" : [
                3
            ]
        }
    ],
    "nodes" : [
        {
            "mesh" : 0,
            "name" : "character_dogArmLeft",
            "translation" : [
                0.20404481887817383,
                0,
                -0.6335563659667969
            ]
        },
        {
            "mesh" : 1,
            "name" : "character_dogArmRight",
            "translation" : [
                -0.20404601097106934,
                0,
                -0.6335563063621521
            ]
        },
        {
            "mesh" : 2,
            "name" : "character_dogHead",
            "translation" : [
                0,
                0,
                -0.7037111520767212
            ]
        },
        {
            "children" : [
                0,
                1,
                2
            ],
            "mesh" : 3,
            "name" : "character_dog",
            "rotation" : [
                0.7071068286895752,
                0,
                0,
                0.7071067094802856
            ]
        }
    ],
    "materials" : [
        {
            "doubleSided" : true,
            "name" : "Beige.017",
            "pbrMetallicRoughness" : {
                "baseColorFactor" : [
                    0.7029160857200623,
                    0.4253237545490265,
                    0.20689357817173004,
                    1
                ],
                "metallicFactor" : 0,
                "roughnessFactor" : 0.5
            }
        },
        {
            "doubleSided" : true,
            "name" : "Red.034",
            "pbrMetallicRoughness" : {
                "baseColorFactor" : [
                    1,
                    0.02505292184650898,
                    0.11802464723587036,
                    1
                ],
                "metallicFactor" : 0,
                "roughnessFactor" : 0.5
            }
        },
        {
            "doubleSided" : true,
            "name" : "Black.026",
            "pbrMetallicRoughness" : {
                "baseColorFactor" : [
                    0.019794002175331116,
                    0.03207586705684662,
                    0.037408243864774704,
                    1
                ],
                "metallicFactor" : 0,
                "roughnessFactor" : 0.5
            }
        }
    ],
    "meshes" : [
        {
            "name" : "Cube.027",
            "primitives" : [
                {
                    "attributes" : {
                        "POSITION" : 0,
                        "NORMAL" : 1,
                        "TEXCOORD_0" : 2
                    },
                    "indices" : 3,
                    "material" : 0
                }
            ]
        },
        {
            "name" : "Cube.026",
            "primitives" : [
                {
                    "attributes" : {
                        "POSITION" : 4,
                        "NORMAL" : 5,
                        "TEXCOORD_0" : 6
                    },
                    "indices" : 7,
                    "material" : 0
                }
            ]
        },
        {
            "name" : "Cube.1339",
            "primitives" : [
                {
                    "attributes" : {
                        "POSITION" : 8,
                        "NORMAL" : 9,
                        "TEXCOORD_0" : 10
                    },
                    "indices" : 11,
                    "material" : 0
                },
                {
                    "attributes" : {
                        "POSITION" : 12,
                        "NORMAL" : 13,
                        "TEXCOORD_0" : 14
                    },
                    "indices" : 15,
                    "material" : 1
                },
                {
                    "attributes" : {
                        "POSITION" : 16,
                        "NORMAL" : 17,
                        "TEXCOORD_0" : 18
                    },
                    "indices" : 19,
                    "material" : 2
                }
            ]
        },
        {
            "name" : "Cube.029",
            "primitives" : [
                {
                    "attributes" : {
                        "POSITION" : 20,
                        "NORMAL" : 21,
                        "TEXCOORD_0" : 22
                    },
                    "indices" : 23,
                    "material" : 0
                }
            ]
        }
    ],
    "accessors" : [
        {
            "bufferView" : 0,
            "componentType" : 5126,
            "count" : 206,
            "max" : [
                0.26490139961242676,
                0.09058669954538345,
                0.47665560245513916
            ],
            "min" : [
                -0.11533478647470474,
                -0.09058652073144913,
                -0.09418356418609619
            ],
            "type" : "VEC3"
        },
        {
            "bufferView" : 1,
            "componentType" : 5126,
            "count" : 206,
            "type" : "VEC3"
        },
        {
            "bufferView" : 2,
            "componentType" : 5126,
            "count" : 206,
            "type" : "VEC2"
        },
        {
            "bufferView" : 3,
            "componentType" : 5123,
            "count" : 978,
            "type" : "SCALAR"
        },
        {
            "bufferView" : 4,
            "componentType" : 5126,
            "count" : 226,
            "max" : [
                0.11533510684967041,
                0.09058669209480286,
                0.4766555428504944
            ],
            "min" : [
                -0.26490116119384766,
                -0.09058653563261032,
                -0.09418362379074097
            ],
            "type" : "VEC3"
        },
        {
            "bufferView" : 5,
            "componentType" : 5126,
            "count" : 226,
            "type" : "VEC3"
        },
        {
            "bufferView" : 6,
            "componentType" : 5126,
            "count" : 226,
            "type" : "VEC2"
        },
        {
            "bufferView" : 7,
            "componentType" : 5123,
            "count" : 978,
            "type" : "SCALAR"
        },
        {
            "bufferView" : 8,
            "componentType" : 5126,
            "count" : 953,
            "max" : [
                0.6946033835411072,
                0.6757477521896362,
                0
            ],
            "min" : [
                -0.6946104168891907,
                -0.49999967217445374,
                -0.9339144229888916
            ],
            "type" : "VEC3"
        },
        {
            "bufferView" : 9,
            "componentType" : 5126,
            "count" : 953,
            "type" : "VEC3"
        },
        {
            "bufferView" : 10,
            "componentType" : 5126,
            "count" : 953,
            "type" : "VEC2"
        },
        {
            "bufferView" : 11,
            "componentType" : 5123,
            "count" : 3600,
            "type" : "SCALAR"
        },
        {
            "bufferView" : 12,
            "componentType" : 5126,
            "count" : 67,
            "max" : [
                0.06676916778087616,
                0.6090513467788696,
                -0.08927085995674133
            ],
            "min" : [
                -0.06676924228668213,
                0.5418928861618042,
                -0.280543714761734
            ],
            "type" : "VEC3"
        },
        {
            "bufferView" : 13,
            "componentType" : 5126,
            "count" : 67,
            "type" : "VEC3"
        },
        {
            "bufferView" : 14,
            "componentType" : 5126,
            "count" : 67,
            "type" : "VEC2"
        },
        {
            "bufferView" : 15,
            "componentType" : 5123,
            "count" : 222,
            "type" : "SCALAR"
        },
        {
            "bufferView" : 16,
            "componentType" : 5126,
            "count" : 188,
            "max" : [
                0.33058083057403564,
                0.7287520170211792,
                -0.26419076323509216
            ],
            "min" : [
                -0.33058077096939087,
                0.3631858229637146,
                -0.4932207465171814
            ],
            "type" : "VEC3"
        },
        {
            "bufferView" : 17,
            "componentType" : 5126,
            "count" : 188,
            "type" : "VEC3"
        },
        {
            "bufferView" : 18,
            "componentType" : 5126,
            "count" : 188,
            "type" : "VEC2"
        },
        {
            "bufferView" : 19,
            "componentType" : 5123,
            "count" : 594,
            "type" : "SCALAR"
        },
        {
            "bufferView" : 20,
            "componentType" : 5126,
            "count" : 311,
            "max" : [
                0.33807387948036194,
                0.34999972581863403,
                6.267252672387258e-08
            ],
            "min" : [
                -0.33807387948036194,
                -0.3499997854232788,
                -0.7255613207817078
            ],
            "type" : "VEC3"
        },
        {
            "bufferView" : 21,
            "componentType" : 5126,
            "count" : 311,
            "type" : "VEC3"
        },
        {
            "bufferView" : 22,
            "componentType" : 5126,
            "count" : 311,
            "type" : "VEC2"
        },
        {
            "bufferView" : 23,
            "componentType" : 5123,
            "count" : 1284,
            "type" : "SCALAR"
        }
    ],
    "bufferViews" : [
        {
            "buffer" : 0,
            "byteLength" : 2472,
            "byteOffset" : 0
        },
        {
            "buffer" : 0,
            "byteLength" : 2472,
            "byteOffset" : 2472
        },
        {
            "buffer" : 0,
            "byteLength" : 1648,
            "byteOffset" : 4944
        },
        {
            "buffer" : 0,
            "byteLength" : 1956,
            "byteOffset" : 6592
        },
        {
            "buffer" : 0,
            "byteLength" : 2712,
            "byteOffset" : 8548
        },
        {
            "buffer" : 0,
            "byteLength" : 2712,
            "byteOffset" : 11260
        },
        {
            "buffer" : 0,
            "byteLength" : 1808,
            "byteOffset" : 13972
        },
        {
            "buffer" : 0,
            "byteLength" : 1956,
            "byteOffset" : 15780
        },
        {
            "buffer" : 0,
            "byteLength" : 11436,
            "byteOffset" : 17736
        },
        {
            "buffer" : 0,
            "byteLength" : 11436,
            "byteOffset" : 29172
        },
        {
            "buffer" : 0,
            "byteLength" : 7624,
            "byteOffset" : 40608
        },
        {
            "buffer" : 0,
            "byteLength" : 7200,
            "byteOffset" : 48232
        },
        {
            "buffer" : 0,
            "byteLength" : 804,
            "byteOffset" : 55432
        },
        {
            "buffer" : 0,
            "byteLength" : 804,
            "byteOffset" : 56236
        },
        {
            "buffer" : 0,
            "byteLength" : 536,
            "byteOffset" : 57040
        },
        {
            "buffer" : 0,
            "byteLength" : 444,
            "byteOffset" : 57576
        },
        {
            "buffer" : 0,
            "byteLength" : 2256,
            "byteOffset" : 58020
        },
        {
            "buffer" : 0,
            "byteLength" : 2256,
            "byteOffset" : 60276
        },
        {
            "buffer" : 0,
            "byteLength" : 1504,
            "byteOffset" : 62532
        },
        {
            "buffer" : 0,
            "byteLength" : 1188,
            "byteOffset" : 64036
        },
        {
            "buffer" : 0,
            "byteLength" : 3732,
            "byteOffset" : 65224
        },
        {
            "buffer" : 0,
            "byteLength" : 3732,
            "byteOffset" : 68956
        },
        {
            "buffer" : 0,
            "byteLength" : 2488,
            "byteOffset" : 72688
        },
        {
            "buffer" : 0,
            "byteLength" : 2568,
            "byteOffset" : 75176
        }
    ],
    "buffers" : [
        {
            "byteLength" : 77744,
            "uri" : "data:application/octet-stream;base64,"
        }
    ]
}
