<svg width="65" height="50" viewBox="0 0 65 50" fill="none" xmlns="http://www.w3.org/2000/svg">
<path fill-rule="evenodd" clip-rule="evenodd" d="M39.5557 9.37819C40.9845 9.37819 42.1397 8.21267 42.1397 6.77891C42.1397 5.34515 40.9845 4.17963 39.5557 4.17963C38.1268 4.17963 36.9717 5.34515 36.9717 6.77891C36.9717 8.21267 38.1268 9.37819 39.5557 9.37819ZM39.5557 10.4803C41.5864 10.4803 43.2326 8.82311 43.2326 6.77891C43.2326 4.7347 41.5864 3.07755 39.5557 3.07755C37.5249 3.07755 35.8787 4.7347 35.8787 6.77891C35.8787 8.82311 37.5249 10.4803 39.5557 10.4803Z" fill="black"/>
<path d="M31.904 6.77891C31.904 8.82312 30.2578 10.4803 28.2271 10.4803C26.1963 10.4803 24.5501 8.82312 24.5501 6.77891C24.5501 4.73471 26.1963 3.07755 28.2271 3.07755C30.2578 3.07755 31.904 4.73471 31.904 6.77891Z" fill="#0247A9"/>
<path d="M54.561 6.77891C54.561 8.82312 52.9148 10.4803 50.8841 10.4803C48.8534 10.4803 47.2071 8.82312 47.2071 6.77891C47.2071 4.73471 48.8534 3.07755 50.8841 3.07755C52.9148 3.07755 54.561 4.73471 54.561 6.77891Z" fill="#DE1616"/>
<path d="M6.87939 16.0811L12.0166 28.5586L16.5284 16.0811H23.3631L13.0328 38.1982H9.97238L0 16.0811H6.87939Z" fill="black"/>
<path d="M31.4165 16.0811V38.1982H25.1625V16.0811H31.4165Z" fill="black"/>
<path d="M42.7153 16.0811V50H36.4613V16.0811H42.7153Z" fill="black"/>
<path d="M54.014 16.0811V38.1982H47.76V16.0811H54.014Z" fill="black"/>
<path d="M65 0V38.1982H58.746V0H65Z" fill="black"/>
</svg>
